<?xml version="1.0" encoding="UTF-8"?>
<svg id="Calque_1" data-name="Calque 1" xmlns="http://www.w3.org/2000/svg" version="1.1" viewBox="0 0 150 150">
  <defs>
    <style>
      .cls-1 {
        fill: #000;
        stroke-width: 0px;
      }
    </style>
  </defs>
  <path class="cls-1" d="M122.39,40.96v-22.93l-7.19-13.03-35.56,12.94c-5.15,1.87-8.61,6.81-8.61,12.29v21.74c0,.06-.03.09-.06.11-.03.02-.07.04-.12.02l-43.24-15.73v23.55c0,4.85,2.71,9.28,6.91,11.53v.99c0,5.48,3.46,10.42,8.61,12.29l13.06,4.75-19.97,7.27c-5.15,1.87-8.61,6.81-8.61,12.29v22.93l7.19,13.03,35.57-12.94c5.15-1.87,8.61-6.81,8.61-12.29v-21.8c0-.06.03-.09.06-.11.03-.02.07-.04.12-.02l43.23,15.73v-23.55c0-4.87-2.64-9.25-6.91-11.53v-.99c0-5.48-3.46-10.42-8.61-12.29l-12.97-4.72,19.88-7.24c5.15-1.87,8.61-6.81,8.61-12.29ZM43.49,83.76c-4.74-1.73-7.93-6.27-7.93-11.32v-.49c.22.09.44.18.66.27l33.38,12.14c.06.02.09.06.09.13s-.03.11-.09.13l-11.96,4.35.02-.04-14.17-5.16ZM121.35,90.02v22.07l-41.84-15.23c-.36-.13-.76-.08-1.07.14-.31.22-.5.58-.5.96v21.8c0,5.05-3.19,9.59-7.93,11.32l-34.74,12.64-6.4-11.6,34.58-12.58c5.15-1.87,8.61-6.81,8.61-12.29v-21.8c0-.06.03-.09.06-.11.03-.02.07-.04.12-.02l43.23,15.73v-21.37c3.64,2.16,5.87,6.05,5.87,10.34ZM114.44,77.5v22.07l-41.84-15.23c-.36-.13-.76-.08-1.07.14-.31.22-.5.58-.5.96v21.8c0,5.05-3.19,9.59-7.93,11.32l-34.46,12.54v-22.06c0-5.05,3.19-9.59,7.93-11.32l33.38-12.14c.47-.17.77-.6.77-1.1,0-.5-.3-.93-.77-1.1l-33.38-12.14c-4.74-1.73-7.93-6.27-7.93-11.32v-22.07l41.85,15.23c.36.13.76.08,1.07-.14.31-.22.5-.58.5-.96v-21.74c0-5.05,3.19-9.59,7.93-11.32l34.45-12.54v22.06c0,5.05-3.19,9.59-7.93,11.32l-33.28,12.11c-.47.17-.77.6-.77,1.1,0,.5.3.93.77,1.1l33.28,12.11c4.74,1.73,7.93,6.27,7.93,11.32ZM92.38,59.93l-18.8-6.84c-.06-.02-.09-.06-.09-.13,0-.06.03-.11.09-.13l33.28-12.11c5.15-1.87,8.61-6.81,8.61-12.29V7.65l5.87,10.65v22.66c0,5.05-3.19,9.59-7.93,11.32l-21.04,7.66Z"/>
</svg>