<svg version="1.1" id="Layer_1" xmlns="http://www.w3.org/2000/svg" xmlns:xlink="http://www.w3.org/1999/xlink" x="0px" y="0px"
	 width="100%" viewBox="0 0 132 189" enable-background="new 0 0 132 189" xml:space="preserve">
<path fill="#d7ffcd" opacity="1.000000" stroke="none" 
	d="
M133.000000,103.000000 
	C133.000000,116.020897 133.000000,129.041794 132.709274,142.182693 
	C131.181473,142.356293 129.809067,142.789001 128.728775,142.403366 
	C120.245216,139.374954 111.835785,136.139740 103.368340,133.065109 
	C91.358063,128.704056 79.317741,124.425720 66.955681,119.992035 
	C66.955681,131.898026 66.973206,143.375549 66.949013,154.852997 
	C66.934814,161.586029 61.852962,168.741440 55.580143,170.988113 
	C40.594997,176.355225 25.599003,181.692902 10.655745,187.174301 
	C9.570956,187.572220 8.876134,189.033249 8.000001,190.000000 
	C5.688149,190.000000 3.376298,190.000000 1.000000,190.000000 
	C1.000000,176.645828 1.000000,163.291580 1.299974,149.775421 
	C4.372522,143.503250 8.856729,139.281555 15.215047,137.001160 
	C31.359707,131.210907 47.482212,125.358879 63.753742,119.480965 
	C63.256351,118.943977 62.991940,118.402512 62.585606,118.256798 
	C47.387184,112.806610 32.147293,107.470673 16.980333,101.934837 
	C11.172064,99.814850 5.666468,97.096962 2.908237,90.920647 
	C2.688213,90.427963 1.655202,90.298340 1.000000,90.000000 
	C1.000000,76.312439 1.000000,62.624878 1.406078,48.468330 
	C2.637572,48.020645 3.543525,47.824017 4.276677,48.094971 
	C24.824183,55.688683 45.354214,63.329681 66.194824,70.681503 
	C66.651100,58.214329 66.799660,46.028549 66.946045,33.459663 
	C68.204300,25.204466 73.570541,21.425983 80.559319,18.946508 
	C95.229279,13.741905 109.828644,8.337598 124.427536,2.935699 
	C125.098572,2.687405 125.482407,1.662959 126.000000,1.000001 
	C126.444443,1.000000 126.888893,1.000000 127.548630,1.273137 
	C128.175949,1.364182 128.587967,1.182089 129.000000,0.999999 
	C130.319931,1.000000 131.639862,1.000000 133.000000,1.000000 
	C133.000000,14.020871 133.000000,27.041777 132.729706,40.196991 
	C127.911453,50.945599 118.397362,54.153561 108.390686,57.373096 
	C95.509880,61.517361 82.969948,66.721130 69.720573,71.679070 
	C71.306252,72.597664 72.213135,73.320923 73.246498,73.691528 
	C85.735939,78.170853 98.240150,82.609138 110.748642,87.035141 
	C119.417267,90.102440 128.234787,92.952042 131.545212,103.016663 
	C131.590897,103.155586 132.496002,103.011826 133.000000,103.000000 
z"/>
</svg>